<?xml version="1.0" encoding="utf-8"?>
<!-- Generator: Adobe Illustrator 22.0.1, SVG Export Plug-In . SVG Version: 6.00 Build 0)  -->
<svg version="1.1" id="Слой_1" xmlns="http://www.w3.org/2000/svg" xmlns:xlink="http://www.w3.org/1999/xlink" x="0px" y="0px"
	 width="293.3px" height="79.6px" viewBox="0 0 293.3 79.6" style="enable-background:new 0 0 293.3 79.6;" xml:space="preserve">
<style type="text/css">
	.st0{enable-background:new    ;}
	.st1{fill:#4C7599;}
	.st2{fill:#496A8B;}
	.st3{fill:#42AAE1;}
	.st4{fill:#86C9EE;}
</style>
<g>
	<g>
		<path d="M117.1,52.1h-14.7V27.4h5.3v19.9h9.5V52.1z"/>
		<path d="M124,52.1V27.4h5.3v24.7H124z"/>
		<path d="M152.5,43.1l8.3-16.2h0.8l6.6,25.2h-5.5l-3.3-12.5l-6.7,12.5H152l-6.6-12.5l-3.3,12.5h-5.2l6.6-25.2h0.8L152.5,43.1z"/>
		<path d="M175.8,52.1V27.4h5.3v24.7H175.8z"/>
		<path d="M193.8,52.1V32.3h-5.4v-4.8h16v4.8h-5.4v19.9H193.8z"/>
		<path d="M226.6,52.1h-14.7V27.4h5.3v19.9h9.5V52.1z"/>
		<path d="M247.2,37v4.8h-8.3v5.5h9.5v4.8h-14.8V27.4h14.7v4.8h-9.4V37H247.2z"/>
		<path d="M264.9,43.9c-0.6-0.6-1.4-1.3-2.6-2.1c-1.1-0.8-1.8-1.3-2-1.5c-2.6-2.1-3.7-3.9-3.7-6.7c0-1.9,0.7-3.4,2.1-4.7
			c1.4-1.3,3.3-2,5.7-2c2.2,0,4.2,0.3,6,1v5c-1.8-0.8-3.7-1.2-5.5-1.2c-1.5,0-2.8,0.7-2.8,1.9c0,0.6,0.4,1.3,1.2,2.1l1.1,1l1.4,1.1
			l1.4,1c2.6,2,4,4.3,4,6.7c0,4.6-3.2,7-8.6,7c-1.7,0-3.9-0.3-6.3-1v-5.2l1.9,0.7c0.8,0.3,2.4,0.6,4.1,0.6c2.3,0,3.4-0.7,3.4-2.1
			C265.7,45.1,265.4,44.5,264.9,43.9z"/>
		<path d="M287,43.9c-0.6-0.6-1.4-1.3-2.6-2.1c-1.1-0.8-1.8-1.3-2-1.5c-2.6-2.1-3.7-3.9-3.7-6.7c0-1.9,0.7-3.4,2.1-4.7
			c1.4-1.3,3.3-2,5.7-2c2.2,0,4.2,0.3,6,1v5c-1.8-0.8-3.7-1.2-5.5-1.2c-1.5,0-2.8,0.7-2.8,1.9c0,0.6,0.4,1.3,1.2,2.1l1.1,1l1.4,1.1
			l1.4,1c2.6,2,4,4.3,4,6.7c0,4.6-3.2,7-8.6,7c-1.7,0-3.9-0.3-6.3-1v-5.2l1.9,0.7c0.8,0.3,2.4,0.6,4.1,0.6c2.3,0,3.4-0.7,3.4-2.1
			C287.8,45.1,287.5,44.5,287,43.9z"/>
	</g>
</g>
<g>
	<g>
		<g class="st0">
			<g>
				<polygon class="st1" points="12.5,31.3 12.5,54.2 8.6,57 8.6,24.4 				"/>
				<polygon class="st2" points="12.3,63.7 12.5,63.5 12.5,64 				"/>
			</g>
			<g>
				<polygon class="st2" points="12.5,63.5 12.5,64 12.3,63.7 				"/>
			</g>
			<g>
				<polygon class="st3" points="37.9,45.2 12.5,63.5 12.3,63.7 0,72.5 0,21.5 8.6,24.4 8.6,57 12.5,54.2 29,42.2 				"/>
			</g>
		</g>
	</g>
	<g>
		<g class="st0">
			<g>
				<polygon class="st1" points="65.2,25.7 49.6,36.9 53.7,43.9 4.2,79.6 0,72.5 12.3,63.7 12.5,64 12.5,63.5 37.9,45.2 33.6,38.9 
					33.2,38.5 65.2,15.7 				"/>
			</g>
			<g>
				<polygon class="st4" points="37.9,45.2 29,42.2 28.9,42.2 24.3,35.5 33.2,38.5 33.6,38.9 				"/>
			</g>
			<g>
				<polygon class="st4" points="78.7,58.7 69.8,55.8 65.2,49 74.1,52 				"/>
			</g>
			<g>
				<polygon class="st1" points="78.8,6.7 78.7,58.7 74.1,52 74.1,0 				"/>
			</g>
			<g>
				<polygon class="st3" points="74.1,0 74.1,52 65.2,49 65.2,25.7 65.2,15.7 33.2,38.5 24.3,35.5 				"/>
			</g>
		</g>
	</g>
</g>
</svg>
